<svg fill="#000000" xmlns="http://www.w3.org/2000/svg"  viewBox="0 0 24 24" width="48px" height="48px"><path d="M11.319 9.242H12.992V15.047H11.319zM4.226 13.355c0-2.005-2.547-1.644-2.547-2.403l.001.002c0-.262.218-.364.567-.368.506 0 1.151.155 1.658.432V9.434c-.551-.22-1.103-.307-1.654-.307C.9 9.127 0 9.839 0 11.029c0 1.864 2.532 1.561 2.532 2.365 0 .31-.266.413-.638.413-.551 0-1.264-.231-1.823-.538v1.516c.619.268 1.245.382 1.819.382C3.274 15.166 4.226 14.567 4.226 13.355zM11.314 8.732L12.987 8.372 12.987 7 11.314 7.36zM16.468 9.129c-.653 0-1.073.31-1.305.527l-.086-.417H13.61V17l1.665-.357.004-1.902c.24.178.596.425 1.178.425 1.193 0 2.28-.879 2.28-3.016C18.741 10.194 17.639 9.129 16.468 9.129zM16.071 13.77L16.071 13.77c-.391.001-.622-.143-.784-.318l-.011-2.501c.173-.193.413-.334.795-.334.607 0 1.027.69 1.027 1.569C17.103 13.092 16.69 13.77 16.071 13.77zM21.592 9.129c-1.583 0-2.547 1.36-2.547 3.074 0 2.027 1.136 2.964 2.757 2.964.795 0 1.391-.182 1.845-.436v-1.266c-.454.231-.975.371-1.635.371-.649 0-1.219-.231-1.294-1.019h3.259c.007-.087.022-.44.022-.602H24C24 10.49 23.175 9.129 21.592 9.129zM20.703 11.577c0-.758.462-1.076.878-1.076.409 0 .844.319.844 1.076H20.703zM7.452 10.675V9.242H6.188L6.184 7.783 4.559 8.132l-.007 5.396c0 .997.743 1.641 1.729 1.641.548 0 .949-.103 1.171-.224v-1.281c-.214.087-1.264.398-1.264-.595v-2.395H7.452zM10.917 10.789V9.243c-.225-.08-1.001-.227-1.391.496L9.424 9.243h-1.44v5.805h1.662v-3.907C10.04 10.618 10.704 10.721 10.917 10.789z"/></svg>